<?xml version="1.0" encoding="utf-8" standalone="no"?>
<!DOCTYPE svg PUBLIC "-//W3C//DTD SVG 1.1//EN"
  "http://www.w3.org/Graphics/SVG/1.1/DTD/svg11.dtd">
<svg xmlns:xlink="http://www.w3.org/1999/xlink" width="360pt" height="270pt" viewBox="0 0 360 270" xmlns="http://www.w3.org/2000/svg" version="1.1">
 <title>AL의 시간 절감률: low 17.2; medium 19.6; high 16.3; xhigh 12.3; max 5.2; ultra 15.1</title>
 <metadata>
  <rdf:RDF xmlns:dc="http://purl.org/dc/elements/1.1/" xmlns:cc="http://creativecommons.org/ns#" xmlns:rdf="http://www.w3.org/1999/02/22-rdf-syntax-ns#">
   <cc:Work>
    <dc:type rdf:resource="http://purl.org/dc/dcmitype/StillImage"/>
    <dc:title>AL의 시간 절감률: low 17.2; medium 19.6; high 16.3; xhigh 12.3; max 5.2; ultra 15.1</dc:title>
    <dc:description>AL의 시간 절감률: low 17.2; medium 19.6; high 16.3; xhigh 12.3; max 5.2; ultra 15.1</dc:description>
    <dc:format>image/svg+xml</dc:format>
    <dc:creator>
     <cc:Agent>
      <dc:title>Matplotlib; plot-codex-routing.py</dc:title>
     </cc:Agent>
    </dc:creator>
   </cc:Work>
  </rdf:RDF>
 </metadata>
 <defs>
  <style type="text/css">*{stroke-linejoin: round; stroke-linecap: butt}</style>
 </defs>
 <g id="figure_1">
  <g id="patch_1">
   <path d="M 0 270
L 360 270
L 360 0
L 0 0
z
" style="fill: #ffffff"/>
  </g>
  <g id="axes_1">
   <g id="patch_2">
    <path d="M 79.2 207.9
L 345.6 207.9
L 345.6 54
L 79.2 54
z
" style="fill: #ffffff"/>
   </g>
   <g id="matplotlib.axis_1">
    <g id="xtick_1">
     <g id="line2d_1">
      <path d="M 118.764936 207.9
L 118.764936 54
" clip-path="url(#p18dfcba3de)" style="fill: none; stroke: #e4e9e6; stroke-width: 0.8; stroke-linecap: square"/>
     </g>
     <g id="line2d_2"/>
     <g id="text_1">
      <!-- -20% -->
      <g style="fill: #26332d" transform="translate(98.783178 229.406484) scale(0.165 -0.165)">
       <defs>
        <path id="AppleSDGothicNeo-Regular-2d" d="M 333 2138
L 2445 2138
L 2445 2560
L 333 2560
L 333 2138
z
" transform="scale(0.015625)"/>
        <path id="AppleSDGothicNeo-Regular-32" d="M 397 269
L 3066 269
L 3066 704
L 1107 704
L 1779 1382
C 2522 2138 2970 2650 2970 3392
C 2970 4160 2502 4640 1638 4640
C 1152 4640 717 4422 448 4250
L 595 3846
C 845 4019 1190 4198 1555 4198
C 2163 4198 2438 3917 2438 3347
C 2438 2733 2029 2266 1421 1632
L 397 570
L 397 269
z
" transform="scale(0.015625)"/>
        <path id="AppleSDGothicNeo-Regular-30" d="M 2022 192
C 2893 192 3558 787 3558 2240
L 3558 2630
C 3558 4122 2867 4634 2029 4634
C 1184 4634 448 4122 448 2605
L 448 2246
C 448 794 1139 192 2022 192
z
M 2022 614
C 1350 614 992 1126 992 2195
L 992 2669
C 992 3744 1357 4211 2029 4211
C 2688 4211 3040 3718 3040 2637
L 3040 2163
C 3040 1062 2682 614 2022 614
z
" transform="scale(0.015625)"/>
        <path id="AppleSDGothicNeo-Regular-25" d="M 1267 2285
C 1875 2285 2253 2752 2253 3430
L 2253 3533
C 2253 4211 1875 4634 1267 4634
C 659 4634 282 4166 282 3494
L 282 3392
C 282 2701 659 2285 1267 2285
z
M 4032 218
C 4640 218 5011 685 5011 1363
L 5011 1466
C 5011 2144 4640 2566 4032 2566
C 3424 2566 3034 2099 3034 1421
L 3034 1325
C 3034 640 3424 218 4032 218
z
M 922 26
L 1350 26
L 4320 4685
L 3891 4685
L 922 26
z
M 4032 544
C 3674 544 3475 781 3475 1325
L 3475 1472
C 3475 1990 3686 2240 4032 2240
C 4365 2240 4563 1984 4563 1466
L 4563 1318
C 4563 781 4371 544 4032 544
z
M 1267 2605
C 928 2605 723 2848 723 3392
L 723 3539
C 723 4064 934 4307 1267 4307
C 1613 4307 1818 4058 1818 3533
L 1818 3386
C 1818 2848 1626 2605 1267 2605
z
" transform="scale(0.015625)"/>
       </defs>
       <use xlink:href="#AppleSDGothicNeo-Regular-2d"/>
       <use xlink:href="#AppleSDGothicNeo-Regular-32" transform="translate(43.199997 0)"/>
       <use xlink:href="#AppleSDGothicNeo-Regular-30" transform="translate(96.499985 0)"/>
       <use xlink:href="#AppleSDGothicNeo-Regular-25" transform="translate(159.499969 0)"/>
      </g>
     </g>
    </g>
    <g id="xtick_2">
     <g id="line2d_3">
      <path d="M 212.4 207.9
L 212.4 54
" clip-path="url(#p18dfcba3de)" style="fill: none; stroke: #e4e9e6; stroke-width: 0.8; stroke-linecap: square"/>
     </g>
     <g id="line2d_4"/>
     <g id="text_2">
      <!-- 0% -->
      <g style="fill: #26332d" transform="translate(200.379492 229.406484) scale(0.165 -0.165)">
       <use xlink:href="#AppleSDGothicNeo-Regular-30"/>
       <use xlink:href="#AppleSDGothicNeo-Regular-25" transform="translate(62.999985 0)"/>
      </g>
     </g>
    </g>
    <g id="xtick_3">
     <g id="line2d_5">
      <path d="M 306.035064 207.9
L 306.035064 54
" clip-path="url(#p18dfcba3de)" style="fill: none; stroke: #e4e9e6; stroke-width: 0.8; stroke-linecap: square"/>
     </g>
     <g id="line2d_6"/>
     <g id="text_3">
      <!-- 20% -->
      <g style="fill: #26332d" transform="translate(289.617564 229.406484) scale(0.165 -0.165)">
       <use xlink:href="#AppleSDGothicNeo-Regular-32"/>
       <use xlink:href="#AppleSDGothicNeo-Regular-30" transform="translate(53.299988 0)"/>
       <use xlink:href="#AppleSDGothicNeo-Regular-25" transform="translate(116.299973 0)"/>
      </g>
     </g>
    </g>
    <g id="text_4">
     <!-- LA 대비 절감률 -->
     <g style="fill: #26332d" transform="translate(163.222266 255.828516) scale(0.165 -0.165)">
      <defs>
       <path id="AppleSDGothicNeo-Regular-4c" d="M 550 269
L 3002 269
L 3002 698
L 1062 698
L 1062 4563
L 550 4563
L 550 269
z
" transform="scale(0.015625)"/>
       <path id="AppleSDGothicNeo-Regular-41" d="M 122 269
L 608 269
L 1050 1523
L 2771 1523
L 3226 269
L 3757 269
L 2189 4563
L 1696 4563
L 122 269
z
M 1901 3885
L 1914 3885
L 2611 1952
L 1197 1952
L 1901 3885
z
" transform="scale(0.015625)"/>
       <path id="AppleSDGothicNeo-Regular-20" transform="scale(0.015625)"/>
       <path id="AppleSDGothicNeo-Regular-b300" d="M 4960 -448
L 4960 5146
L 4480 5146
L 4480 2944
L 3731 2944
L 3731 5011
L 3258 5011
L 3258 -160
L 3731 -160
L 3731 2534
L 4480 2534
L 4480 -448
L 4960 -448
z
M 902 1414
L 902 4051
L 2586 4051
L 2586 4461
L 416 4461
L 416 992
L 787 992
C 1517 992 2458 1056 2989 1158
L 2944 1555
C 2470 1453 1632 1414 1069 1414
L 902 1414
z
" transform="scale(0.015625)"/>
       <path id="AppleSDGothicNeo-Regular-be44" d="M 4838 -448
L 4838 5146
L 4352 5146
L 4352 -448
L 4838 -448
z
M 3187 941
L 3187 4672
L 2701 4672
L 2701 3238
L 1024 3238
L 1024 4672
L 544 4672
L 544 941
L 3187 941
z
M 2701 1350
L 1024 1350
L 1024 2835
L 2701 2835
L 2701 1350
z
" transform="scale(0.015625)"/>
       <path id="AppleSDGothicNeo-Regular-c808" d="M 5024 -410
L 5024 0
L 1702 0
L 1702 621
L 4819 621
L 4819 1971
L 1197 1971
L 1197 1562
L 4333 1562
L 4333 998
L 1216 998
L 1216 -410
L 5024 -410
z
M 352 4410
L 1658 4410
L 1658 4224
C 1651 3482 915 2803 211 2534
L 474 2163
C 1075 2419 1754 2995 1907 3520
C 2138 3014 2733 2534 3264 2317
L 3533 2694
C 2893 2906 2176 3501 2163 4218
L 2157 4410
L 3437 4410
L 3437 4819
L 352 4819
L 352 4410
z
M 4813 2266
L 4813 5146
L 4326 5146
L 4326 3853
L 3238 3853
L 3238 3450
L 4326 3450
L 4326 2266
L 4813 2266
z
" transform="scale(0.015625)"/>
       <path id="AppleSDGothicNeo-Regular-ac10" d="M 5395 3270
L 5395 3674
L 4544 3674
L 4544 5146
L 4058 5146
L 4058 1914
L 4544 1914
L 4544 3270
L 5395 3270
z
M 4544 -371
L 4544 1626
L 1030 1626
L 1030 -371
L 4544 -371
z
M 4058 32
L 1517 32
L 1517 1222
L 4058 1222
L 4058 32
z
M 461 4717
L 461 4307
L 2490 4307
C 2355 3296 1286 2496 186 2266
L 410 1862
C 1837 2272 2957 3181 3040 4717
L 461 4717
z
" transform="scale(0.015625)"/>
       <path id="AppleSDGothicNeo-Regular-b960" d="M 4870 -346
L 4870 38
L 1312 38
L 1312 512
L 4698 512
L 4698 1664
L 3949 1664
L 3949 2234
L 5293 2234
L 5293 2624
L 243 2624
L 243 2234
L 1574 2234
L 1574 1664
L 832 1664
L 832 1306
L 4211 1306
L 4211 864
L 826 864
L 826 -346
L 4870 -346
z
M 4774 2982
L 4774 3347
L 1370 3347
L 1370 3789
L 4666 3789
L 4666 4960
L 877 4960
L 877 4576
L 4179 4576
L 4179 4141
L 883 4141
L 883 2982
L 4774 2982
z
M 2061 2234
L 3456 2234
L 3456 1664
L 2061 1664
L 2061 2234
z
" transform="scale(0.015625)"/>
      </defs>
      <use xlink:href="#AppleSDGothicNeo-Regular-4c"/>
      <use xlink:href="#AppleSDGothicNeo-Regular-41" transform="translate(50.499985 0)"/>
      <use xlink:href="#AppleSDGothicNeo-Regular-20" transform="translate(110.999969 0)"/>
      <use xlink:href="#AppleSDGothicNeo-Regular-b300" transform="translate(137.299957 0)"/>
      <use xlink:href="#AppleSDGothicNeo-Regular-be44" transform="translate(223.799942 0)"/>
      <use xlink:href="#AppleSDGothicNeo-Regular-20" transform="translate(310.299927 0)"/>
      <use xlink:href="#AppleSDGothicNeo-Regular-c808" transform="translate(336.599915 0)"/>
      <use xlink:href="#AppleSDGothicNeo-Regular-ac10" transform="translate(423.099899 0)"/>
      <use xlink:href="#AppleSDGothicNeo-Regular-b960" transform="translate(509.599884 0)"/>
     </g>
    </g>
   </g>
   <g id="matplotlib.axis_2">
    <g id="ytick_1">
     <g id="line2d_7"/>
     <g id="text_5">
      <!-- low -->
      <g style="fill: #26332d" transform="translate(45.630469 75.146791) scale(0.165 -0.165)">
       <defs>
        <path id="AppleSDGothicNeo-Regular-6c" d="M 480 269
L 973 269
L 973 4851
L 480 4851
L 480 269
z
" transform="scale(0.015625)"/>
        <path id="AppleSDGothicNeo-Regular-6f" d="M 1702 211
C 2560 211 3149 813 3149 1824
L 3149 1914
C 3149 2918 2605 3501 1709 3501
C 851 3501 269 2899 269 1894
L 269 1798
C 269 787 806 211 1702 211
z
M 1715 614
C 1184 614 768 902 768 1786
L 768 1946
C 768 2688 1126 3098 1702 3098
C 2221 3098 2650 2810 2650 1926
L 2650 1766
C 2650 1018 2291 614 1715 614
z
" transform="scale(0.015625)"/>
        <path id="AppleSDGothicNeo-Regular-77" d="M 1082 269
L 1581 269
L 2330 2688
L 2349 2688
L 3085 269
L 3578 269
L 4480 3443
L 4013 3443
L 3360 902
L 3334 902
L 2566 3443
L 2144 3443
L 1382 902
L 1357 902
L 704 3443
L 179 3443
L 1082 269
z
" transform="scale(0.015625)"/>
       </defs>
       <use xlink:href="#AppleSDGothicNeo-Regular-6c"/>
       <use xlink:href="#AppleSDGothicNeo-Regular-6f" transform="translate(22.699997 0)"/>
       <use xlink:href="#AppleSDGothicNeo-Regular-77" transform="translate(76.099991 0)"/>
      </g>
     </g>
    </g>
    <g id="ytick_2">
     <g id="line2d_8"/>
     <g id="text_6">
      <!-- medium -->
      <g style="fill: #26332d" transform="translate(13.968516 99.969371) scale(0.165 -0.165)">
       <defs>
        <path id="AppleSDGothicNeo-Regular-6d" d="M 467 269
L 954 269
L 954 2848
C 1210 2970 1491 3078 1760 3078
C 2182 3078 2336 2918 2336 2534
L 2336 269
L 2822 269
L 2822 2637
C 2822 2714 2816 2771 2803 2848
C 3104 2982 3373 3078 3622 3078
C 4051 3078 4205 2918 4205 2534
L 4205 269
L 4685 269
L 4685 2637
C 4685 3251 4365 3501 3814 3501
C 3456 3501 3085 3373 2739 3149
L 2714 3149
C 2566 3386 2310 3501 1952 3501
C 1594 3501 1254 3354 960 3168
L 934 3168
L 934 3443
L 467 3443
L 467 269
z
" transform="scale(0.015625)"/>
        <path id="AppleSDGothicNeo-Regular-65" d="M 1773 211
C 2285 211 2650 371 2842 506
L 2842 870
C 2554 736 2272 634 1850 634
C 1171 634 794 941 768 1734
L 2931 1734
L 2931 2010
C 2931 2995 2522 3501 1651 3501
C 922 3501 269 3008 269 1901
L 269 1811
C 269 819 774 211 1773 211
z
M 1638 3104
C 2157 3104 2419 2816 2419 2125
L 768 2125
C 819 2874 1242 3104 1638 3104
z
" transform="scale(0.015625)"/>
        <path id="AppleSDGothicNeo-Regular-64" d="M 1600 211
C 2029 211 2336 346 2528 531
L 2554 531
L 2611 269
L 3021 269
L 3021 4851
L 2528 4851
L 2528 3290
C 2355 3392 2086 3501 1696 3501
C 877 3501 282 3002 282 1850
L 282 1766
C 282 595 966 211 1600 211
z
M 1747 614
C 1178 614 794 896 794 1786
L 794 1914
C 794 2771 1158 3085 1760 3085
C 2086 3085 2381 2995 2528 2880
L 2528 883
C 2368 755 2118 614 1747 614
z
" transform="scale(0.015625)"/>
        <path id="AppleSDGothicNeo-Regular-69" d="M 486 269
L 973 269
L 973 3437
L 486 3437
L 486 269
z
M 480 4077
L 979 4077
L 979 4589
L 480 4589
L 480 4077
z
" transform="scale(0.015625)"/>
        <path id="AppleSDGothicNeo-Regular-75" d="M 1421 211
C 1805 211 2144 358 2432 557
L 2458 557
L 2502 269
L 2925 269
L 2925 3443
L 2438 3443
L 2438 883
C 2176 755 1894 634 1555 634
C 1088 634 941 800 941 1210
L 941 3443
L 448 3443
L 448 1139
C 448 525 800 211 1421 211
z
" transform="scale(0.015625)"/>
       </defs>
       <use xlink:href="#AppleSDGothicNeo-Regular-6d"/>
       <use xlink:href="#AppleSDGothicNeo-Regular-65" transform="translate(80.299988 0)"/>
       <use xlink:href="#AppleSDGothicNeo-Regular-64" transform="translate(130.299973 0)"/>
       <use xlink:href="#AppleSDGothicNeo-Regular-69" transform="translate(184.799957 0)"/>
       <use xlink:href="#AppleSDGothicNeo-Regular-75" transform="translate(207.499954 0)"/>
       <use xlink:href="#AppleSDGothicNeo-Regular-6d" transform="translate(260.499939 0)"/>
      </g>
     </g>
    </g>
    <g id="ytick_3">
     <g id="line2d_9"/>
     <g id="text_7">
      <!-- high -->
      <g style="fill: #26332d" transform="translate(40.420078 124.791952) scale(0.165 -0.165)">
       <defs>
        <path id="AppleSDGothicNeo-Regular-68" d="M 467 269
L 954 269
L 954 2842
C 1216 2970 1549 3078 1850 3078
C 2355 3078 2490 2918 2490 2534
L 2490 269
L 2976 269
L 2976 2630
C 2976 3245 2675 3501 2054 3501
C 1664 3501 1261 3366 986 3168
L 954 3168
L 954 4851
L 467 4851
L 467 269
z
" transform="scale(0.015625)"/>
        <path id="AppleSDGothicNeo-Regular-67" d="M 1574 -672
C 2656 -672 3091 -243 3091 301
C 3091 890 2662 1062 2086 1062
L 1210 1062
C 998 1062 896 1126 896 1299
C 896 1402 960 1478 1043 1555
C 1210 1498 1389 1466 1587 1466
C 2253 1466 2778 1805 2778 2483
L 2778 2490
C 2778 2739 2694 2931 2547 3072
L 3117 3072
L 3117 3450
L 2042 3450
C 1901 3482 1754 3501 1594 3501
C 896 3501 397 3136 397 2477
L 397 2464
C 397 2086 550 1830 794 1670
C 550 1491 435 1344 435 1146
C 435 934 576 800 755 749
L 755 717
C 429 608 154 410 154 70
C 154 -390 608 -672 1574 -672
z
M 1562 -288
C 934 -288 666 -147 666 134
C 666 403 851 544 1094 627
L 2010 627
C 2426 627 2579 531 2579 237
C 2579 -96 2310 -288 1562 -288
z
M 1587 1850
C 1165 1850 883 2054 883 2470
L 883 2502
C 883 2899 1152 3130 1587 3130
C 2016 3130 2285 2931 2285 2496
L 2285 2464
C 2285 2054 2029 1850 1587 1850
z
" transform="scale(0.015625)"/>
       </defs>
       <use xlink:href="#AppleSDGothicNeo-Regular-68"/>
       <use xlink:href="#AppleSDGothicNeo-Regular-69" transform="translate(53.599991 0)"/>
       <use xlink:href="#AppleSDGothicNeo-Regular-67" transform="translate(76.299988 0)"/>
       <use xlink:href="#AppleSDGothicNeo-Regular-68" transform="translate(126.899979 0)"/>
      </g>
     </g>
    </g>
    <g id="ytick_4">
     <g id="line2d_10"/>
     <g id="text_8">
      <!-- xhigh -->
      <g style="fill: #26332d" transform="translate(32.549062 149.614533) scale(0.165 -0.165)">
       <defs>
        <path id="AppleSDGothicNeo-Regular-78" d="M 147 269
L 685 269
L 1510 1536
L 2317 269
L 2899 269
L 1837 1882
L 2822 3443
L 2291 3443
L 1568 2234
L 774 3443
L 198 3443
L 1229 1882
L 147 269
z
" transform="scale(0.015625)"/>
       </defs>
       <use xlink:href="#AppleSDGothicNeo-Regular-78"/>
       <use xlink:href="#AppleSDGothicNeo-Regular-68" transform="translate(47.699997 0)"/>
       <use xlink:href="#AppleSDGothicNeo-Regular-69" transform="translate(101.299988 0)"/>
       <use xlink:href="#AppleSDGothicNeo-Regular-67" transform="translate(123.999985 0)"/>
       <use xlink:href="#AppleSDGothicNeo-Regular-68" transform="translate(174.599976 0)"/>
      </g>
     </g>
    </g>
    <g id="ytick_5">
     <g id="line2d_11"/>
     <g id="text_9">
      <!-- max -->
      <g style="fill: #26332d" transform="translate(41.291484 174.437113) scale(0.165 -0.165)">
       <defs>
        <path id="AppleSDGothicNeo-Regular-61" d="M 1242 211
C 1670 211 1939 365 2086 544
L 2118 544
L 2170 269
L 2566 269
L 2566 2566
C 2566 3213 2176 3501 1478 3501
C 1114 3501 806 3443 531 3328
L 531 2976
C 730 3034 979 3078 1286 3078
C 1856 3078 2074 2950 2074 2458
L 2074 2125
L 1216 2022
C 608 1952 250 1658 250 1101
C 250 506 666 211 1242 211
z
M 1363 595
C 998 595 762 768 762 1114
C 762 1478 954 1638 1344 1677
L 2074 1760
L 2074 826
C 1939 691 1658 595 1363 595
z
" transform="scale(0.015625)"/>
       </defs>
       <use xlink:href="#AppleSDGothicNeo-Regular-6d"/>
       <use xlink:href="#AppleSDGothicNeo-Regular-61" transform="translate(80.299988 0)"/>
       <use xlink:href="#AppleSDGothicNeo-Regular-78" transform="translate(127.499985 0)"/>
      </g>
     </g>
    </g>
    <g id="ytick_6">
     <g id="line2d_12"/>
     <g id="text_10">
      <!-- ultra -->
      <g style="fill: #26332d" transform="translate(38.4375 199.259694) scale(0.165 -0.165)">
       <defs>
        <path id="AppleSDGothicNeo-Regular-74" d="M 1472 230
C 1747 230 1882 301 2010 358
L 2010 691
C 1882 653 1734 634 1600 634
C 1235 634 1133 755 1133 1062
L 1133 3034
L 1946 3034
L 1946 3437
L 1133 3437
L 1133 4192
L 646 4192
L 646 3437
L 192 3437
L 192 3034
L 646 3034
L 646 986
C 646 448 973 230 1472 230
z
" transform="scale(0.015625)"/>
        <path id="AppleSDGothicNeo-Regular-72" d="M 467 269
L 960 269
L 960 2765
C 1184 2925 1491 3040 1811 3040
C 1862 3040 1958 3034 2042 3021
L 2042 3462
C 2010 3469 1920 3475 1850 3475
C 1491 3475 1146 3290 966 3085
L 934 3085
L 934 3443
L 467 3443
L 467 269
z
" transform="scale(0.015625)"/>
       </defs>
       <use xlink:href="#AppleSDGothicNeo-Regular-75"/>
       <use xlink:href="#AppleSDGothicNeo-Regular-6c" transform="translate(52.999985 0)"/>
       <use xlink:href="#AppleSDGothicNeo-Regular-74" transform="translate(75.699982 0)"/>
       <use xlink:href="#AppleSDGothicNeo-Regular-72" transform="translate(110.699966 0)"/>
       <use xlink:href="#AppleSDGothicNeo-Regular-61" transform="translate(145.299957 0)"/>
      </g>
     </g>
    </g>
   </g>
   <g id="patch_3">
    <path d="M 212.4 61.819113
L 292.886752 61.819113
L 292.886752 75.967984
L 212.4 75.967984
z
" clip-path="url(#p18dfcba3de)" style="fill: #397d45"/>
   </g>
   <g id="patch_4">
    <path d="M 212.4 86.641694
L 304.262069 86.641694
L 304.262069 100.790565
L 212.4 100.790565
z
" clip-path="url(#p18dfcba3de)" style="fill: #397d45"/>
   </g>
   <g id="patch_5">
    <path d="M 212.4 111.464274
L 288.513035 111.464274
L 288.513035 125.613145
L 212.4 125.613145
z
" clip-path="url(#p18dfcba3de)" style="fill: #397d45"/>
   </g>
   <g id="patch_6">
    <path d="M 212.4 136.286855
L 270.072746 136.286855
L 270.072746 150.435726
L 212.4 150.435726
z
" clip-path="url(#p18dfcba3de)" style="fill: #397d45"/>
   </g>
   <g id="patch_7">
    <path d="M 212.4 161.109435
L 236.52847 161.109435
L 236.52847 175.258306
L 212.4 175.258306
z
" clip-path="url(#p18dfcba3de)" style="fill: #397d45"/>
   </g>
   <g id="patch_8">
    <path d="M 212.4 185.932016
L 282.963226 185.932016
L 282.963226 200.080887
L 212.4 200.080887
z
" clip-path="url(#p18dfcba3de)" style="fill: #397d45"/>
   </g>
   <g id="line2d_13">
    <path d="M 212.4 207.9
L 212.4 54
" clip-path="url(#p18dfcba3de)" style="fill: none; stroke: #8c9b93; stroke-linecap: square"/>
   </g>
   <g id="text_11">
    <!-- +17.2% -->
    <g style="fill: #26332d" transform="translate(298.214752 74.109798) scale(0.16 -0.16)">
     <defs>
      <path id="AppleSDGothicNeo-Regular-2b" d="M 1562 883
L 2016 883
L 2016 2125
L 3206 2125
L 3206 2554
L 2016 2554
L 2016 3808
L 1562 3808
L 1562 2554
L 346 2554
L 346 2125
L 1562 2125
L 1562 883
z
" transform="scale(0.015625)"/>
      <path id="AppleSDGothicNeo-Regular-31" d="M 1146 243
L 1632 243
L 1632 4634
L 1363 4634
L 352 4160
L 352 3866
L 1146 4051
L 1146 243
z
" transform="scale(0.015625)"/>
      <path id="AppleSDGothicNeo-Regular-37" d="M 710 243
L 1274 243
L 2957 4218
L 2957 4544
L 218 4544
L 218 4115
L 2400 4115
L 710 243
z
" transform="scale(0.015625)"/>
      <path id="AppleSDGothicNeo-Regular-2e" d="M 269 109
L 826 109
L 826 678
L 269 678
L 269 109
z
" transform="scale(0.015625)"/>
     </defs>
     <use xlink:href="#AppleSDGothicNeo-Regular-2b"/>
     <use xlink:href="#AppleSDGothicNeo-Regular-31" transform="translate(54.299988 0)"/>
     <use xlink:href="#AppleSDGothicNeo-Regular-37" transform="translate(89.999985 0)"/>
     <use xlink:href="#AppleSDGothicNeo-Regular-2e" transform="translate(138.999969 0)"/>
     <use xlink:href="#AppleSDGothicNeo-Regular-32" transform="translate(161.59996 0)"/>
     <use xlink:href="#AppleSDGothicNeo-Regular-25" transform="translate(214.899948 0)"/>
    </g>
   </g>
   <g id="text_12">
    <!-- +19.6% -->
    <g style="fill: #26332d" transform="translate(309.590069 98.932379) scale(0.16 -0.16)">
     <defs>
      <path id="AppleSDGothicNeo-Regular-39" d="M 1696 4634
C 826 4634 307 3949 307 3142
C 307 2323 896 1798 1619 1798
C 2093 1798 2445 2010 2675 2272
C 2630 1069 2227 621 1523 621
C 1178 621 832 723 646 832
L 506 461
C 704 326 1107 192 1549 192
C 2586 192 3187 979 3187 2477
L 3187 2758
C 3187 3974 2656 4634 1696 4634
z
M 1702 4211
C 2387 4211 2675 3686 2675 2886
L 2675 2765
C 2496 2515 2131 2227 1722 2227
C 1203 2227 813 2515 813 3187
C 813 3782 1146 4211 1702 4211
z
" transform="scale(0.015625)"/>
      <path id="AppleSDGothicNeo-Regular-36" d="M 1837 192
C 2707 192 3232 826 3232 1645
C 3232 2464 2656 2957 1939 2957
C 1459 2957 1107 2733 877 2496
C 941 3834 1350 4205 2080 4205
C 2355 4205 2733 4096 2886 4006
L 3034 4378
C 2854 4486 2458 4634 2029 4634
C 1037 4634 365 3968 365 2451
L 365 2118
C 365 896 877 192 1837 192
z
M 1830 614
C 1146 614 877 1139 877 1939
L 877 1984
C 1056 2240 1427 2528 1837 2528
C 2355 2528 2720 2266 2720 1594
C 2720 979 2387 614 1830 614
z
" transform="scale(0.015625)"/>
     </defs>
     <use xlink:href="#AppleSDGothicNeo-Regular-2b"/>
     <use xlink:href="#AppleSDGothicNeo-Regular-31" transform="translate(54.299988 0)"/>
     <use xlink:href="#AppleSDGothicNeo-Regular-39" transform="translate(89.999985 0)"/>
     <use xlink:href="#AppleSDGothicNeo-Regular-2e" transform="translate(145.399979 0)"/>
     <use xlink:href="#AppleSDGothicNeo-Regular-36" transform="translate(167.999969 0)"/>
     <use xlink:href="#AppleSDGothicNeo-Regular-25" transform="translate(223.399963 0)"/>
    </g>
   </g>
   <g id="text_13">
    <!-- +16.3% -->
    <g style="fill: #26332d" transform="translate(293.841035 123.75496) scale(0.16 -0.16)">
     <defs>
      <path id="AppleSDGothicNeo-Regular-33" d="M 1491 205
C 2445 205 3053 730 3053 1478
C 3053 2144 2630 2458 2074 2566
C 2560 2726 2893 3040 2893 3571
C 2893 4243 2368 4634 1600 4634
C 1229 4634 723 4474 467 4301
L 544 3891
C 813 4045 1146 4198 1498 4198
C 2022 4198 2362 4013 2362 3488
C 2362 3008 1984 2726 1427 2726
L 1043 2726
L 1043 2291
L 1459 2291
C 2112 2291 2534 2029 2534 1478
C 2534 947 2138 634 1427 634
C 1107 634 678 755 435 915
L 326 512
C 563 346 992 205 1491 205
z
" transform="scale(0.015625)"/>
     </defs>
     <use xlink:href="#AppleSDGothicNeo-Regular-2b"/>
     <use xlink:href="#AppleSDGothicNeo-Regular-31" transform="translate(54.299988 0)"/>
     <use xlink:href="#AppleSDGothicNeo-Regular-36" transform="translate(89.999985 0)"/>
     <use xlink:href="#AppleSDGothicNeo-Regular-2e" transform="translate(145.399979 0)"/>
     <use xlink:href="#AppleSDGothicNeo-Regular-33" transform="translate(167.999969 0)"/>
     <use xlink:href="#AppleSDGothicNeo-Regular-25" transform="translate(221.59996 0)"/>
    </g>
   </g>
   <g id="text_14">
    <!-- +12.3% -->
    <g style="fill: #26332d" transform="translate(275.400746 148.57754) scale(0.16 -0.16)">
     <use xlink:href="#AppleSDGothicNeo-Regular-2b"/>
     <use xlink:href="#AppleSDGothicNeo-Regular-31" transform="translate(54.299988 0)"/>
     <use xlink:href="#AppleSDGothicNeo-Regular-32" transform="translate(89.999985 0)"/>
     <use xlink:href="#AppleSDGothicNeo-Regular-2e" transform="translate(143.299973 0)"/>
     <use xlink:href="#AppleSDGothicNeo-Regular-33" transform="translate(165.899963 0)"/>
     <use xlink:href="#AppleSDGothicNeo-Regular-25" transform="translate(219.499954 0)"/>
    </g>
   </g>
   <g id="text_15">
    <!-- +5.2% -->
    <g style="fill: #26332d" transform="translate(241.85647 173.400121) scale(0.16 -0.16)">
     <defs>
      <path id="AppleSDGothicNeo-Regular-35" d="M 1395 192
C 2342 192 2906 838 2906 1606
C 2906 2509 2374 2918 1510 2918
C 1331 2918 1069 2874 896 2829
L 986 4134
L 2752 4134
L 2752 4570
L 576 4570
L 422 2317
C 621 2406 1024 2528 1318 2528
C 1990 2528 2374 2266 2374 1613
C 2374 1005 1978 621 1299 621
C 947 621 525 768 288 928
L 192 518
C 448 333 896 192 1395 192
z
" transform="scale(0.015625)"/>
     </defs>
     <use xlink:href="#AppleSDGothicNeo-Regular-2b"/>
     <use xlink:href="#AppleSDGothicNeo-Regular-35" transform="translate(54.299988 0)"/>
     <use xlink:href="#AppleSDGothicNeo-Regular-2e" transform="translate(104.199982 0)"/>
     <use xlink:href="#AppleSDGothicNeo-Regular-32" transform="translate(126.799973 0)"/>
     <use xlink:href="#AppleSDGothicNeo-Regular-25" transform="translate(180.09996 0)"/>
    </g>
   </g>
   <g id="text_16">
    <!-- +15.1% -->
    <g style="fill: #26332d" transform="translate(288.291226 198.222702) scale(0.16 -0.16)">
     <use xlink:href="#AppleSDGothicNeo-Regular-2b"/>
     <use xlink:href="#AppleSDGothicNeo-Regular-31" transform="translate(54.299988 0)"/>
     <use xlink:href="#AppleSDGothicNeo-Regular-35" transform="translate(89.999985 0)"/>
     <use xlink:href="#AppleSDGothicNeo-Regular-2e" transform="translate(139.899979 0)"/>
     <use xlink:href="#AppleSDGothicNeo-Regular-31" transform="translate(162.499969 0)"/>
     <use xlink:href="#AppleSDGothicNeo-Regular-25" transform="translate(198.199966 0)"/>
    </g>
   </g>
  </g>
  <g id="text_17">
   <!-- AL의 시간 절감률 -->
   <g style="fill: #26332d" transform="translate(10.8 24.62625) scale(0.18 -0.18)">
    <defs>
     <path id="AppleSDGothicNeo-Regular-c758" d="M 4352 5146
L 4352 -448
L 4838 -448
L 4838 5146
L 4352 5146
z
M 3469 3379
C 3469 4198 2842 4710 2016 4710
C 1203 4710 557 4166 557 3379
C 557 2630 1190 2080 2016 2080
C 2822 2080 3469 2586 3469 3379
z
M 2995 3379
C 2995 2854 2547 2490 2016 2490
C 1472 2490 1030 2861 1030 3379
C 1030 3904 1478 4294 2016 4294
C 2560 4294 2995 3942 2995 3379
z
M 4026 973
L 3981 1370
C 3571 1318 2848 1274 2067 1248
C 1389 1210 730 1197 250 1203
L 339 774
C 762 781 1376 800 2035 832
C 2746 864 3546 915 4026 973
z
" transform="scale(0.015625)"/>
     <path id="AppleSDGothicNeo-Regular-c2dc" d="M 4851 -448
L 4851 5146
L 4358 5146
L 4358 -448
L 4851 -448
z
M 3648 1267
C 2874 1728 2195 2643 2195 3667
L 2195 4659
L 1702 4659
L 1702 3648
C 1702 2656 1030 1638 211 1126
L 531 762
C 1178 1222 1754 1907 1958 2605
C 2176 1933 2835 1242 3341 896
L 3648 1267
z
" transform="scale(0.015625)"/>
     <path id="AppleSDGothicNeo-Regular-ac04" d="M 5395 2982
L 5395 3392
L 4544 3392
L 4544 5146
L 4058 5146
L 4058 960
L 4544 960
L 4544 2982
L 5395 2982
z
M 4717 -307
L 4717 96
L 1510 96
L 1510 1421
L 1024 1421
L 1024 -307
L 4717 -307
z
M 435 4653
L 435 4243
L 2451 4243
C 2310 3213 1408 2323 205 2016
L 454 1606
C 1882 2061 2918 3130 2982 4653
L 435 4653
z
" transform="scale(0.015625)"/>
    </defs>
    <use xlink:href="#AppleSDGothicNeo-Regular-41"/>
    <use xlink:href="#AppleSDGothicNeo-Regular-4c" transform="translate(60.499985 0)"/>
    <use xlink:href="#AppleSDGothicNeo-Regular-c758" transform="translate(110.999969 0)"/>
    <use xlink:href="#AppleSDGothicNeo-Regular-20" transform="translate(197.499954 0)"/>
    <use xlink:href="#AppleSDGothicNeo-Regular-c2dc" transform="translate(223.799942 0)"/>
    <use xlink:href="#AppleSDGothicNeo-Regular-ac04" transform="translate(310.299927 0)"/>
    <use xlink:href="#AppleSDGothicNeo-Regular-20" transform="translate(396.799911 0)"/>
    <use xlink:href="#AppleSDGothicNeo-Regular-c808" transform="translate(423.099899 0)"/>
    <use xlink:href="#AppleSDGothicNeo-Regular-ac10" transform="translate(509.599884 0)"/>
    <use xlink:href="#AppleSDGothicNeo-Regular-b960" transform="translate(596.099869 0)"/>
   </g>
  </g>
 </g>
 <defs>
  <clipPath id="p18dfcba3de">
   <rect x="79.2" y="54" width="266.4" height="153.9"/>
  </clipPath>
 </defs>
</svg>
